<svg xmlns="http://www.w3.org/2000/svg">
<path fill="#f2933f" d="M15.88,11.69a2.12,2.12,0,0,0-2.12-2.12h0a2.11,2.11,0,0,0-1.81,1,6.28,6.28,0,0,0-3.48-1h0a6.35,6.35,0,0,0-6.34,6.37h0a6.36,6.36,0,0,0,6.34,6.38h0a6.36,6.36,0,0,0,6.35-6.38h0a6.39,6.39,0,0,0-.4-2.23A2.12,2.12,0,0,0,15.88,11.69Z"/>
<path fill="#fab900" d="M34,2.13A2.12,2.12,0,0,0,31.84,0h0A2.11,2.11,0,0,0,30,1a6.27,6.27,0,0,0-3.47-1h0A6.37,6.37,0,0,0,20.2,6.38h0a6.37,6.37,0,0,0,6.35,6.38h0a6.36,6.36,0,0,0,6.34-6.38h0a6.3,6.3,0,0,0-.4-2.23A2.13,2.13,0,0,0,34,2.13Z"/>
<path fill="#aeca37" d="M49.9,11.69a2.12,2.12,0,0,0-2.12-2.12h0a2.13,2.13,0,0,0-1.82,1,6.25,6.25,0,0,0-3.47-1h0a6.36,6.36,0,0,0-6.35,6.37h0a6.36,6.36,0,0,0,6.35,6.38h0a6.36,6.36,0,0,0,6.35-6.38h0a6.39,6.39,0,0,0-.4-2.23A2.13,2.13,0,0,0,49.9,11.69Z"/>
<path fill="#72ba6f" d="M13.75,30.83a2.11,2.11,0,0,0-2.11-2.13h0a2.13,2.13,0,0,0-1.82,1,6.27,6.27,0,0,0-3.47-1h0A6.37,6.37,0,0,0,0,35.08H0a6.37,6.37,0,0,0,6.35,6.38h0a6.37,6.37,0,0,0,6.35-6.38h0a6.53,6.53,0,0,0-.4-2.23A2.13,2.13,0,0,0,13.75,30.83Z"/>
<path fill="#3eb397" d="M31.83,21.26a2.13,2.13,0,0,0-2.12-2.13h0a2.13,2.13,0,0,0-1.82,1,6.35,6.35,0,0,0-3.47-1h0a6.37,6.37,0,0,0-6.35,6.38h0a6.37,6.37,0,0,0,6.35,6.38h0a6.37,6.37,0,0,0,6.35-6.38h0a6.34,6.34,0,0,0-.4-2.23A2.14,2.14,0,0,0,31.83,21.26Z"/>
<path fill="#cc80b3" d="M47.77,30.83a2.12,2.12,0,0,0-2.12-2.13h0a2.11,2.11,0,0,0-1.81,1,6.28,6.28,0,0,0-3.48-1h0A6.36,6.36,0,0,0,34,35.08h0a6.36,6.36,0,0,0,6.34,6.38h0a6.37,6.37,0,0,0,6.35-6.38h0a6.3,6.3,0,0,0-.4-2.23A2.13,2.13,0,0,0,47.77,30.83Z"/>
<path fill="#81cff4" d="M29.7,40.39a2.12,2.12,0,0,0-2.12-2.12h0a2.11,2.11,0,0,0-1.81,1,6.28,6.28,0,0,0-3.48-1h0a6.37,6.37,0,0,0-6.35,6.38h0A6.36,6.36,0,0,0,22.29,51h0a6.36,6.36,0,0,0,6.35-6.37h0a6.4,6.4,0,0,0-.4-2.24A2.11,2.11,0,0,0,29.7,40.39Z"/>
<path d="M68.49,37.25h-6l3.88-24H78c3,0,4.58.66,5.57,2.34a9.33,9.33,0,0,1,.73,5.7,12,12,0,0,1-2.81,6,8.24,8.24,0,0,1-6.14,2.35H69.72Zm2.09-12.92H74.5c2.28,0,3.37-.89,3.71-3s-.55-2.88-2.76-2.88H71.52Z"/>
<path d="M93.26,19.93l-.37,2.28c1.5-2.19,3-2.95,6.42-3.11l-1,5.92-.53,0c-.44,0-.85,0-1.08,0a4.66,4.66,0,0,0-5,4.15l-1.31,8.14H84.86l2.8-17.32Z"/>
<path d="M119.43,20.62c1.54,1.65,2,3.93,1.47,7.19a11.34,11.34,0,0,1-3.67,7,10.76,10.76,0,0,1-7.39,2.44c-6.61,0-9.66-3.33-8.66-9.47a10.87,10.87,0,0,1,4.17-7.41,13.28,13.28,0,0,1,7.49-2.09C115.85,18.28,117.94,19,119.43,20.62Zm-12.57,7.25c-.57,3.52.51,5.1,3.48,5.1,2.79,0,4.28-1.61,4.88-5.32.56-3.48-.48-5-3.4-5S107.44,24.27,106.86,27.87Z"/>
<path d="M124.6,20h2.19l.34-2.09c.59-3.48,1.72-4.62,4.64-4.65h4.31l-.68,4.17h-1.33c-1,0-1.31.29-1.47,1.3L132.39,20H135l-.6,3.67H131.8l-2.2,13.62H124l2.19-13.62H124Z"/>
</svg>